<?xml version="1.0" encoding="utf-8"?>
<!-- Generator: Adobe Illustrator 21.1.0, SVG Export Plug-In . SVG Version: 6.00 Build 0)  -->
<svg version="1.1" id="Layer_1" xmlns="http://www.w3.org/2000/svg" xmlns:xlink="http://www.w3.org/1999/xlink" x="0px" y="0px"
	 viewBox="0 0 360 360" style="enable-background:new 0 0 360 360;" xml:space="preserve">
<style type="text/css">
	.st0{fill:#FFFF00;stroke:#FFFF00;stroke-miterlimit:10;}
	.st1{fill:#FFFFFF;}
</style>
<rect class="st0" width="360" height="360"/>
<g>
	<g>
		<path class="st1" d="M180,110.1c-47.2,0-89.9,25.8-121.5,67.7c-2.6,3.4-2.6,8.2,0,11.7c31.6,42,74.3,67.8,121.5,67.8
			s89.9-25.8,121.5-67.7c2.6-3.4,2.6-8.2,0-11.7C269.9,135.9,227.1,110.1,180,110.1z M183.3,235.5c-31.3,2-57.2-23.8-55.2-55.2
			c1.6-25.9,22.6-46.8,48.4-48.4c31.3-2,57.2,23.8,55.2,55.2C230.1,212.9,209.1,233.8,183.3,235.5z M181.8,211.6
			c-16.9,1.1-30.8-12.8-29.7-29.7c0.9-13.9,12.2-25.2,26.1-26.1c16.9-1.1,30.8,12.8,29.7,29.7C207,199.4,195.7,210.7,181.8,211.6z"
			/>
	</g>
	<g>
	</g>
	<g>
	</g>
	<g>
	</g>
	<g>
	</g>
	<g>
	</g>
	<g>
	</g>
	<g>
	</g>
	<g>
	</g>
	<g>
	</g>
	<g>
	</g>
	<g>
	</g>
	<g>
	</g>
	<g>
	</g>
	<g>
	</g>
	<g>
	</g>
</g>
</svg>
